<svg width="357" height="510" viewBox="0 0 357 510" fill="none" xmlns="http://www.w3.org/2000/svg">
<path d="M85.681 422.93H94.441C94.625 422.93 94.7743 422.78 94.7743 422.596C94.7743 422.412 94.625 422.263 94.441 422.263H85.681C85.497 422.263 85.3477 422.412 85.3477 422.596C85.3477 422.78 85.497 422.93 85.681 422.93Z" fill="#131112"/>
<path d="M183.315 509.158C87.5258 509.158 9.87109 495.26 9.87109 478.113C9.87109 460.968 87.5258 447.068 183.315 447.068C279.107 447.068 356.76 460.968 356.76 478.113C356.76 495.26 279.107 509.158 183.315 509.158" fill="#F0EEEE"/>
<path d="M150.428 76.5271C150.145 65.9858 149.755 55.4391 149.581 44.8951C149.433 35.8738 149.169 27.7898 144.6 19.4858C139.36 9.96048 130.415 7.16045 120.896 7.84845C107.807 -0.207554 91.0719 -2.29021 76.4866 2.66446C59.7719 8.34313 46.4439 23.0671 42.4533 40.2618C38.7706 56.1271 42.6573 72.6578 42.7573 88.9458C42.8013 96.1511 42.1039 103.43 43.4199 110.514C44.7346 117.596 48.5106 124.71 55.0293 127.782C50.7399 121.419 49.6573 113.008 52.1946 105.768C51.0279 117.118 56.9679 128.895 66.7879 134.703C62.4933 128.094 61.0253 119.711 62.8186 112.035C61.5253 119.728 65.9759 128.022 73.1026 131.196C76.8866 124.864 81.5066 119.032 86.8066 113.9C85.3679 117.735 83.9306 121.571 82.4933 125.407C90.0666 123.835 97.7319 122.234 104.681 118.834C111.629 115.435 117.896 109.988 120.655 102.762C119.941 109.666 116.175 116.198 110.559 120.274C122.24 119.802 133.305 111.986 137.653 101.132C137.983 107.54 135.336 114.042 130.621 118.395C138.973 117 145.344 109.68 148.097 101.674C150.851 93.6685 150.656 84.9898 150.428 76.5271" fill="#54362C"/>
<path d="M152.697 464.555C150.336 461.047 146.787 458.382 142.796 456.991C142.083 459.339 141.237 461.7 140.557 464.179C138.956 470.007 138.329 476.164 143.927 479.821C148.097 482.545 152.728 482.973 157.28 480.969C160.384 479.603 166.401 476.271 167.532 472.837C167.976 471.487 167.731 470.018 167.475 468.619C167.292 467.628 167.115 466.63 166.935 465.628C166.223 461.638 165.5 457.586 164.521 453.65C159.773 456.257 155.656 460.016 152.697 464.555" fill="#E6AB65"/>
<path d="M158.855 434.971C158.596 433.659 158.255 431.474 157.858 428.674L141.018 431.326C141.418 431.263 144.012 445.196 144.167 446.532C144.591 450.212 143.831 453.59 142.796 456.991C146.787 458.382 150.336 461.047 152.698 464.555C155.656 460.016 159.774 456.256 164.522 453.65C164.212 452.403 163.88 451.167 163.508 449.95C161.983 444.928 159.879 440.178 158.855 434.971" fill="#A56345"/>
<path d="M151.241 472.817C148.726 473.004 146.293 474.13 144.523 475.927C146.674 477.849 149.63 478.839 152.506 478.602C153.793 478.496 160.362 476.627 159.501 474.572C158.947 473.254 152.343 472.734 151.241 472.817Z" fill="#A56345"/>
<path d="M35.1949 465.373C37.7762 462.645 51.3882 457.73 55.9415 454.468C59.4775 451.933 62.8135 449.876 64.5548 445.648C66.0282 442.072 66.3282 438.137 66.5455 434.276C66.6202 432.941 66.6575 430.728 66.6669 427.901L87.0989 428.272C86.4562 432.29 85.7882 436.612 85.1095 441.373C84.2988 447.057 86.4815 465.404 86.3842 466.901C86.0082 472.625 74.8802 471.527 71.0882 471.893C64.8215 472.496 58.7535 474.325 52.5042 475.033C47.1949 475.634 39.9402 475.522 35.1575 472.797C32.1429 471.08 33.1055 467.581 35.1949 465.373" fill="#A56345"/>
<path d="M80.033 451.94C80.0023 455.266 77.749 458.499 74.637 459.676C74.465 459.741 74.3783 459.933 74.4436 460.105C74.509 460.277 74.7023 460.364 74.8743 460.299C78.2556 459.008 80.6557 455.565 80.6997 451.947C80.701 451.763 80.553 451.612 80.369 451.609C80.185 451.608 80.0343 451.756 80.033 451.94" fill="#131112"/>
<path d="M7.83528 247.607C6.83261 249.284 5.9006 251.007 5.02193 252.747C4.0006 254.771 2.9366 256.779 2.05927 258.874C1.2166 260.886 0.30194 262.974 0.0606064 265.163C-0.0793936 266.432 -0.071404 268.466 1.14993 269.243C1.34193 269.366 1.78727 269.388 1.89127 269.608C2.01127 269.868 1.68859 270.727 1.74059 271.108C1.87925 272.142 2.5806 273.127 3.5846 273.468C3.39926 274.116 3.31126 274.872 3.71126 275.414C4.12459 275.975 4.94326 276.103 5.60992 275.899C6.30326 275.69 6.83394 274.987 7.56061 274.939C8.49527 274.88 9.09128 275.503 10.0673 274.948C10.8606 274.496 11.3793 273.695 11.8659 272.923C15.2033 267.635 18.8939 262.454 23.2712 257.948C26.3259 254.804 29.9686 251.827 31.4179 247.611C32.6846 243.923 33.0606 236.443 33.0606 236.443L22.8699 229.999C22.8699 229.999 17.5633 237.07 15.3806 238.683C12.2086 241.027 9.84061 244.251 7.83528 247.607" fill="#A56345"/>
<path d="M15.3821 262.738C14.3501 262.008 13.3581 261.224 12.4101 260.388C12.2714 260.266 12.0608 260.28 11.9394 260.418C11.8168 260.556 11.8301 260.766 11.9688 260.888C12.9341 261.74 13.9461 262.538 14.9968 263.282C15.1475 263.389 15.3555 263.353 15.4621 263.204C15.5675 263.053 15.5328 262.845 15.3821 262.738" fill="#4F4C4D"/>
<path d="M13.7424 262.168C10.6931 265.889 8.20113 270.061 6.37046 274.511C6.30113 274.68 6.38244 274.876 6.55177 274.945C6.72244 275.016 6.91711 274.935 6.98778 274.764C8.79178 270.376 11.2504 266.26 14.2571 262.591C14.3744 262.448 14.3531 262.239 14.2118 262.121C14.0691 262.005 13.8584 262.025 13.7424 262.168Z" fill="#4F4C4D"/>
<path d="M9.60394 262.253C7.17327 265.549 5.12926 269.129 3.5306 272.899C3.4586 273.069 3.53724 273.265 3.70657 273.337C3.87591 273.409 4.07191 273.33 4.14391 273.159C5.72258 269.438 7.74124 265.902 10.1412 262.649C10.2506 262.499 10.2186 262.291 10.0706 262.182C9.9226 262.073 9.71327 262.105 9.60394 262.253" fill="#4F4C4D"/>
<path d="M6.61524 260.83C4.83791 263.462 3.27256 266.236 1.93923 269.118C1.8619 269.285 1.93393 269.484 2.10193 269.561C2.26859 269.638 2.46724 269.565 2.54457 269.398C3.8619 266.548 5.41126 263.806 7.16726 261.204C7.26992 261.05 7.2299 260.844 7.0779 260.741C6.92457 260.638 6.71791 260.678 6.61524 260.83" fill="#4F4C4D"/>
<path d="M10.2829 246.884C9.68421 248.719 9.29355 250.626 8.95488 252.458C8.48688 255.024 6.97888 257.389 6.58822 260.149C6.56155 260.344 6.54688 260.546 6.54688 260.752C6.54821 261.209 6.61887 261.68 6.80553 262.099C6.98953 262.516 7.30821 262.889 7.77754 263.076C7.99887 263.165 8.22955 263.201 8.45221 263.201C8.91488 263.2 9.35223 263.055 9.73623 262.884C12.5562 261.624 13.9509 258.913 15.0829 256.356C15.8629 254.593 16.6256 253.424 18.0922 252.177C20.5776 250.072 22.7069 248.043 23.3282 244.571C23.3616 244.389 23.2402 244.216 23.0589 244.184C22.8776 244.152 22.7042 244.272 22.6722 244.453C22.0895 247.688 20.1416 249.563 17.6602 251.669C16.1176 252.975 15.2682 254.278 14.4722 256.086C13.3509 258.63 12.0149 261.145 9.46556 262.276C9.12823 262.427 8.76688 262.536 8.45221 262.535C8.30021 262.535 8.15755 262.51 8.02555 262.457C7.74422 262.344 7.55221 262.13 7.41354 261.826C7.27754 261.525 7.21354 261.138 7.21354 260.752C7.21354 260.578 7.22688 260.405 7.24954 260.24C7.59621 257.671 9.09487 255.312 9.60954 252.58C9.9482 250.756 10.3335 248.876 10.9162 247.09C10.9735 246.916 10.8776 246.728 10.7029 246.671C10.5269 246.613 10.3389 246.709 10.2829 246.884" fill="#4F4C4D"/>
<path d="M82.3524 121.416C94.9697 119.563 87.1231 140.711 84.2497 149.311C81.3764 157.912 77.2151 175.159 67.2071 192.148C57.2004 209.136 35.0897 238.629 35.0897 238.629C35.0897 238.629 31.2764 239.444 27.5871 236.732C23.8951 234.02 22.8711 229.999 22.8711 229.999C22.8711 229.999 39.4618 193.892 51.1284 179.457C51.1284 179.457 56.3137 151.937 59.5497 143.244C62.7857 134.549 71.2644 123.045 82.3524 121.416" fill="#E9D6C8"/>
<path d="M139.084 127.04C138.679 125.66 135.458 124.838 131.96 123.729C129.2 122.853 89.9416 114.198 78.0456 123.998C73.0016 128.154 65.5603 145.897 64.0709 156.774C62.5816 167.65 67.4589 180.097 67.4589 180.097C67.4349 197.3 60.1896 229.676 59.2509 234.509C58.7136 237.269 58.2283 239.96 57.7949 242.6L136.258 237.838C131.828 223.902 123.683 211.53 118.488 197.904C117.514 195.346 143.671 142.708 139.084 127.04" fill="#E9D6C8"/>
<path d="M156.312 388.045C154.528 367.689 141.085 358.426 139.823 338.032C138.427 315.496 144.592 305.565 144.623 282.986C144.644 267.373 140.931 252.541 136.257 237.837L57.7947 242.598C54.8414 260.544 54.2161 276.145 55.4121 295.292C57.2947 325.437 62.6041 342.898 64.3961 373.049C64.9827 382.922 63.7441 426.944 64.0574 440.218C64.0614 440.422 69.3707 443.208 72.8921 443.573C77.6681 444.068 84.9627 442.769 85.8321 442.781C89.2667 431.146 96.0841 379.19 95.1161 363.486C94.3641 351.262 91.8054 339.178 91.5321 326.936C91.2734 315.382 92.8881 312.929 94.5067 301.488C95.0334 297.768 95.4827 297.432 95.9774 293.706C101.032 313.893 106.72 323.144 112.651 343.093C115.289 351.965 116.656 357.782 118.293 366.893C123.625 396.556 130.747 412.902 143.072 440.405C143.072 440.405 146.688 442.94 152.437 441.138C158.187 439.337 160.151 436.149 160.151 436.149C159.071 421.114 157.617 402.936 156.312 388.045" fill="#575860"/>
<path d="M132.733 350.59C131.144 351.911 129.061 352.606 126.984 352.605C125.583 352.605 124.185 352.29 122.945 351.646C122.783 351.562 122.581 351.626 122.496 351.789C122.412 351.953 122.476 352.154 122.639 352.238C123.981 352.934 125.483 353.271 126.984 353.271C129.208 353.271 131.436 352.534 133.159 351.102C133.301 350.985 133.32 350.774 133.203 350.633C133.085 350.491 132.875 350.473 132.733 350.59" fill="#131112"/>
<path d="M70.3821 351.978C69.5301 353.757 67.5794 354.989 65.6074 354.992C65.4234 354.993 65.2741 355.142 65.2754 355.326C65.2754 355.51 65.4261 355.66 65.6101 355.658C67.8527 355.646 70.0061 354.286 70.9821 352.266C71.0621 352.101 70.9927 351.902 70.8261 351.822C70.6607 351.742 70.4607 351.812 70.3821 351.978" fill="#131112"/>
<path d="M189.019 267.65C190.606 270.157 192.191 272.662 193.778 275.169C194.276 275.957 194.783 276.762 195.008 277.665C195.236 278.569 195.142 279.605 194.538 280.314C194.975 281.247 195.418 282.202 195.554 283.223C195.688 284.247 195.47 285.37 194.74 286.101C194.586 286.255 194.404 286.398 194.323 286.602C194.251 286.774 194.26 286.97 194.23 287.155C194.118 287.823 193.47 288.303 192.802 288.423C192.132 288.542 191.45 288.374 190.799 288.181C190.616 288.714 189.982 288.969 189.418 288.946C188.65 288.917 187.936 288.506 187.388 287.969C186.839 287.431 186.431 286.769 186.027 286.115C185.244 284.843 184.458 283.571 183.67 282.301C183.054 281.31 182.432 280.315 181.666 279.435C180.183 277.735 178.227 276.551 176.216 275.578C175.275 275.121 174.291 274.745 173.4 274.215C172.862 273.897 172.132 273.441 171.495 273.85C170.76 274.321 170.891 275.429 171.207 276.241C172.488 279.531 175.286 282.073 176.48 285.397C176.666 285.911 176.798 286.522 176.492 286.975C175.964 287.751 174.763 287.375 173.942 286.921C171.02 285.307 168.036 283.645 165.838 281.135C162.062 276.83 159.584 271.109 157.41 265.877C156.21 262.99 155.238 260.115 153.871 257.407L165.102 248.531C168.754 252.141 173.387 254.27 177.658 257.049C179.983 258.562 182.328 260.091 184.303 262.041C186.07 263.783 187.678 265.531 189.019 267.65" fill="#A56345"/>
<path d="M190.964 287.73C189.407 283.393 187.253 279.269 184.588 275.51C184.481 275.36 184.273 275.325 184.123 275.432C183.973 275.538 183.937 275.746 184.044 275.896C186.675 279.605 188.8 283.676 190.337 287.956C190.399 288.129 190.589 288.218 190.763 288.156C190.936 288.094 191.027 287.904 190.964 287.73" fill="#4F4C4D"/>
<path d="M194.431 285.997C192.396 281.322 189.779 276.901 186.661 272.866C186.549 272.721 186.34 272.694 186.195 272.806C186.048 272.919 186.021 273.129 186.135 273.274C189.217 277.265 191.807 281.638 193.819 286.263C193.892 286.431 194.088 286.509 194.257 286.435C194.427 286.362 194.504 286.166 194.431 285.997" fill="#4F4C4D"/>
<path d="M194.319 279.8C192.528 276.279 190.442 272.912 188.086 269.742C187.975 269.594 187.767 269.563 187.619 269.674C187.471 269.783 187.44 269.992 187.55 270.14C189.884 273.279 191.951 276.615 193.725 280.103C193.809 280.267 194.008 280.333 194.174 280.249C194.338 280.165 194.403 279.964 194.319 279.8" fill="#4F4C4D"/>
<path d="M135.41 124.866C135.41 124.866 145.515 128.339 149.829 140.054C154.142 151.769 161.401 185.201 162.482 196.279C163.562 207.358 168.663 248.598 168.663 248.598C168.663 248.598 170.758 253.029 164.761 257.827C158.762 262.629 150.826 257.989 150.826 257.989C144.983 246.758 136.661 191.271 136.661 191.271C136.661 191.271 123.233 159.613 123.378 144.998C123.522 130.385 135.41 124.866 135.41 124.866" fill="#E9D6C8"/>
<path d="M67.1824 191.977C66.757 185.942 66.5757 180.124 64.933 174.276C63.741 170.034 62.8997 165.572 62.901 161.15C62.901 159.692 62.9917 158.237 63.1917 156.797C64.189 149.597 68.017 142.712 71.3957 137.222C71.4917 137.066 71.4424 136.861 71.2864 136.765C71.129 136.668 70.9237 136.717 70.8277 136.874C67.4397 142.385 63.557 149.333 62.5317 156.705C62.3264 158.178 62.2344 159.664 62.2344 161.15C62.2344 165.656 63.089 170.176 64.2917 174.456C65.9077 180.202 66.0917 185.972 66.517 192.024C66.5304 192.208 66.689 192.346 66.873 192.333C67.057 192.321 67.1944 192.161 67.1824 191.977" fill="#131112"/>
<path d="M107.262 178.933C98.6768 177.145 90.8555 171.888 85.9595 164.613C85.8568 164.46 85.6501 164.42 85.4968 164.523C85.3448 164.625 85.3034 164.833 85.4061 164.985C90.4048 172.408 98.3648 177.76 107.126 179.587C107.306 179.624 107.482 179.508 107.519 179.328C107.558 179.148 107.442 178.972 107.262 178.933" fill="#131112"/>
<path d="M66.2542 467.606C64.9889 466.961 63.9289 465.989 62.7915 465.139C59.3462 462.565 55.0835 461.102 50.7835 461.015C51.3062 459.529 51.8275 458.044 52.3489 456.557C48.5435 458.508 43.3902 460.697 39.6395 462.594C41.2942 462.65 42.9502 462.705 44.6062 462.761C43.5382 465.078 42.4729 467.397 41.4062 469.715C38.6982 470.15 35.8835 469.822 33.3275 468.83C33.0435 470.351 33.4902 471.846 35.1582 472.797C39.9409 475.522 47.1956 475.634 52.5049 475.033C58.7542 474.325 64.8222 472.496 71.0889 471.892C74.8809 471.527 86.0089 472.625 86.3849 466.901C86.4035 466.605 86.3342 465.648 86.2155 464.266C82.6289 466.082 78.7915 467.404 74.8435 468.16C71.9715 468.711 68.8582 468.935 66.2542 467.606" fill="#E6AB65"/>
<path d="M127.338 217.108C127.338 217.108 109.529 231.571 87.4445 231.169C65.3605 230.769 61.4352 223.855 61.4352 223.855C61.4352 223.855 53.8899 239.921 50.7259 255.5C47.5606 271.079 48.0125 290.319 48.0125 290.319C48.0125 290.319 63.8179 304.848 94.5059 301.488C94.5059 301.488 135.317 302.459 151.447 280.647C151.447 280.647 141.642 250.352 137.119 235.845C132.598 221.339 127.338 217.108 127.338 217.108" fill="#BE8755"/>
<path d="M77.4875 230.346C76.8929 231.713 76.6582 233.259 76.6582 234.782C76.6582 236.473 76.9475 238.135 77.3795 239.502C77.8169 240.871 78.3689 241.939 79.0102 242.481C79.3622 242.759 79.8729 242.875 80.5422 242.969C81.2089 243.055 82.0275 243.089 82.9302 243.089C87.1302 243.089 93.1622 242.338 93.1689 242.337L93.1275 242.006L92.7955 242.037C92.7982 242.049 96.5102 282.734 101.792 300.838C101.844 301.014 102.029 301.117 102.205 301.065C102.382 301.013 102.484 300.827 102.432 300.651C99.8102 291.673 97.5622 276.991 95.9755 264.57C95.1822 258.358 94.5529 252.709 94.1222 248.613C93.6915 244.517 93.4609 241.982 93.4595 241.975L93.3369 241.746L93.0862 241.675C93.0835 241.675 91.5835 241.862 89.5609 242.049C87.5369 242.237 84.9929 242.422 82.9302 242.422C82.0449 242.422 81.2489 242.387 80.6275 242.307C80.0102 242.233 79.5595 242.082 79.4355 241.967C78.9822 241.603 78.4195 240.602 78.0155 239.302C77.6035 238.001 77.3249 236.395 77.3249 234.782C77.3249 233.327 77.5515 231.867 78.0982 230.611C78.1715 230.442 78.0942 230.246 77.9249 230.173C77.7569 230.099 77.5609 230.177 77.4875 230.346" fill="#131112"/>
<path d="M83.189 242.782C83.1903 242.786 86.1983 274.83 90.7477 301.849C90.7783 302.03 90.9503 302.153 91.1317 302.122C91.313 302.092 91.4357 301.92 91.405 301.738C89.133 288.246 87.245 273.49 85.925 262.108C85.265 256.417 84.7463 251.569 84.3943 248.145C84.041 244.72 83.8543 242.725 83.853 242.72C83.8357 242.536 83.673 242.402 83.4903 242.418C83.3063 242.436 83.1717 242.598 83.189 242.782" fill="#131112"/>
<path d="M88.4457 236.631C88.4137 238.355 86.991 239.727 85.267 239.697C83.543 239.665 82.171 238.242 82.2017 236.518C82.2337 234.794 83.6563 233.422 85.3803 233.453C87.1043 233.485 88.4777 234.907 88.4457 236.631Z" fill="#E6AB65"/>
<path d="M122.753 220.372C122.753 220.372 122.87 220.504 123.086 220.767C124.598 222.61 130.81 230.715 132.832 241.439C135.18 253.867 147.006 285.387 147.009 285.399C147.074 285.571 147.266 285.659 147.438 285.594C147.61 285.53 147.698 285.338 147.633 285.164C147.632 285.16 146.894 283.195 145.75 280.046C142.316 270.606 135.224 250.53 133.486 241.316C131.13 228.851 123.27 219.955 123.253 219.931C123.132 219.792 122.921 219.779 122.782 219.902C122.645 220.023 122.632 220.234 122.753 220.372" fill="#131112"/>
<path d="M113.559 225.332C114.29 229.844 116.722 234.049 120.267 236.933C123.6 239.64 127.872 241.146 132.163 241.146C132.44 241.146 132.718 241.14 132.995 241.128C133.179 241.118 133.32 240.964 133.312 240.78C133.304 240.596 133.148 240.453 132.964 240.461C132.698 240.473 132.431 240.48 132.163 240.48C128.03 240.48 123.896 239.024 120.688 236.416C117.272 233.638 114.919 229.57 114.218 225.225C114.188 225.044 114.016 224.92 113.835 224.949C113.654 224.978 113.53 225.149 113.559 225.332" fill="#131112"/>
<path d="M67.1947 255.777C80.3467 258.471 93.3494 261.893 106.124 266.019C106.3 266.075 106.487 265.979 106.544 265.805C106.6 265.629 106.504 265.441 106.329 265.385C93.5307 261.25 80.504 257.823 67.328 255.123C67.148 255.087 66.9721 255.203 66.9347 255.383C66.8974 255.563 67.0134 255.739 67.1947 255.777" fill="#131112"/>
<path d="M117.804 121.829C116.827 121.144 116.029 120.32 115.489 119.318C114.236 116.99 113.529 112.757 113.144 108.145C112.365 98.8637 112.888 88.0383 112.888 88.0383L93.3639 101.938C93.3639 101.938 95.7305 105.792 95.8052 111.648C95.8252 113.22 95.6892 114.926 95.2865 116.753C94.3959 120.8 92.1506 123.721 89.5332 126.038C89.5279 128.28 90.7892 130.493 92.6452 131.801C94.8092 133.329 97.6225 133.737 100.243 133.353C102.864 132.97 105.324 131.858 107.636 130.566C111.624 128.337 115.284 125.526 118.476 122.258C118.245 122.121 118.019 121.98 117.804 121.829" fill="#A56345"/>
<path d="M95.1989 117.133C95.1949 117.131 95.1895 117.129 95.1855 117.126C95.2149 117.005 95.2562 116.89 95.2842 116.766C95.2575 116.89 95.2282 117.011 95.1989 117.133ZM95.2869 116.753C95.2909 116.737 95.2949 116.721 95.2976 116.703C95.2949 116.721 95.2909 116.737 95.2869 116.753ZM95.3002 116.695C95.3029 116.682 95.3055 116.67 95.3082 116.658C95.3055 116.67 95.3029 116.682 95.3002 116.695ZM95.3122 116.639C95.3135 116.631 95.3162 116.622 95.3175 116.614C95.3162 116.622 95.3135 116.631 95.3122 116.639ZM95.3229 116.587C95.3242 116.583 95.3242 116.579 95.3256 116.575C95.3242 116.579 95.3242 116.583 95.3229 116.587Z" fill="#522A23"/>
<path d="M97.4112 117.594C96.5819 117.594 95.8499 117.427 95.1992 117.132C95.2286 117.011 95.2579 116.89 95.2845 116.766C95.2859 116.762 95.2872 116.756 95.2872 116.752C95.2912 116.736 95.2952 116.72 95.2979 116.703C95.2992 116.7 95.2992 116.698 95.3006 116.695C95.3032 116.682 95.3059 116.67 95.3085 116.658C95.3099 116.651 95.3112 116.646 95.3125 116.639C95.3139 116.631 95.3165 116.622 95.3179 116.614C95.3192 116.604 95.3219 116.595 95.3232 116.587C95.3245 116.583 95.3245 116.579 95.3259 116.575C95.8725 113.995 95.9099 111.638 95.6965 109.604C96.6325 109.314 97.5832 108.95 98.5525 108.507C103.611 106.199 108.386 103.271 112.747 99.8204C112.753 100.112 112.759 100.407 112.766 100.703C110.643 105.695 105.202 116.708 98.2099 117.544C97.9339 117.578 97.6685 117.594 97.4112 117.594" fill="#A24A34"/>
<path d="M108.83 16.2212C117.39 20.2265 123.847 27.2252 127.795 36.1359C128.002 36.6039 128.202 37.0745 128.395 37.5492C133.237 49.3905 133.777 62.8972 130.109 75.1359C128.685 79.8866 127.406 84.2519 124.306 88.2132C117.506 96.9039 108.59 103.929 98.5513 108.508C92.2246 111.393 86.7286 110.967 80.4579 108.163C75.6859 106.029 71.0553 103.327 67.5886 99.4146C62.6139 93.7999 62.542 87.3692 62.0353 80.3319C61.3113 70.2706 55.9673 61.0066 55.0353 50.9626C54.15 41.4132 57.538 31.5466 64.102 24.5532C66.0566 22.4719 68.3193 20.6906 70.7419 19.1839C80.0473 13.3986 92.3086 11.0572 102.954 14.0439C105.009 14.6212 106.97 15.3505 108.83 16.2212" fill="#A56345"/>
<path d="M106.855 91.2344V91.101H105.388V90.9677H104.855V90.8344H104.322V90.701H103.922V90.5677H103.388V90.4344H103.122V90.301H102.855V90.1677H102.588V90.0344H102.322V89.901H102.055V89.7677H101.788V89.6344H101.655V89.501H101.522V89.3677H101.255V89.2344H101.122V89.101H100.988V88.9677H100.722V88.8344H100.588V88.701H100.455V88.5677H100.188V88.301H100.055V88.1677H99.9216V88.0344H99.7883V87.901H99.6549V87.7677H99.5216V87.6344H99.3883V87.501H99.2549V87.2344H99.1216V87.101H98.9883V86.9677H98.8549V86.701H98.7216V86.5677H98.5883V86.301H98.4549V86.1677H98.3216V85.901H98.1883V85.6344H98.0549V85.3677H97.9216V85.101H97.7883V84.8344H97.6549V84.301H97.5216V83.901H97.3883V83.501H97.2549V82.4344H97.1216V81.3677H96.9883V81.2344H97.1216V79.3677H97.2549V78.8344H97.3883V78.301H97.5216V77.901H97.6549V77.3677H97.7883V77.101H97.9216V76.8344H98.0549V76.5677H98.1883V76.301H98.3216V76.0344H98.4549V75.7677H98.5883V75.6344H98.7216V75.3677H98.8549V75.2344H98.9883V75.101H99.1216V74.8344H99.2549V74.701H99.3883V74.5677H99.5216V74.301H99.6549V74.1677H99.7883V74.0344H99.9216V73.901H100.055V73.7677H100.322V73.6344H100.455V73.501H100.588V73.3677H100.722V73.2344H100.855V73.101H100.988V72.9677H101.122V72.8344H101.388V72.701H101.522V72.5677H101.788V72.4344H102.055V72.301H102.188V72.1677H102.455V72.0344H102.722V71.901H102.988V71.7677H103.255V71.6344H103.655V71.501H104.055V71.3677H104.588V71.2344H105.122V71.101H106.188V70.9677H108.055V71.101H109.122V71.2344H109.655V71.3677H110.188V71.501H110.588V71.6344H110.988V71.7677H111.255V71.901H111.522V72.0344H111.788V72.1677H112.055V72.301H112.322V72.4344H112.588V72.5677H112.722V72.701H112.988V72.8344H113.122V72.9677H113.255V73.101H113.522V73.2344H113.655V73.3677H113.788V73.501H114.055V73.6344H114.188V73.901H114.322V74.0344H114.455V74.1677H114.588V74.301H114.722V74.4344H114.855V74.5677H114.988V74.701H115.122V74.8344H115.255V75.101H115.388V75.2344H115.522V75.501H115.655V75.6344H115.788V75.901H115.922V76.0344H116.055V76.301H116.188V76.5677H116.322V76.8344H116.455V77.101H116.588V77.501H116.722V77.901H116.855V78.4344H116.988V78.8344H117.122V79.901H117.255V82.301H117.122V83.2344H116.988V83.6344H116.855V84.1677H116.722V84.701H116.588V84.9677H116.455V85.2344H116.322V85.501H116.188V85.7677H116.055V86.0344H115.922V86.301H115.788V86.5677H115.655V86.701H115.522V86.8344H115.388V87.101H115.255V87.2344H115.122V87.3677H114.988V87.6344H114.855V87.7677H114.722V87.901H114.588V88.0344H114.455V88.1677H114.322V88.301H114.188V88.4344H114.055V88.5677H113.922V88.701H113.788V88.8344H113.522V88.9677H113.388V89.101H113.255V89.2344H113.122V89.3677H112.855V89.501H112.722V89.6344H112.455V89.7677H112.322V89.901H112.055V90.0344H111.788V90.1677H111.522V90.301H111.255V90.4344H110.988V90.5677H110.588V90.701H110.055V90.8344H109.655V90.9677H108.855V91.101H107.788V91.2344" fill="url(#paint0_radial_101_357)"/>
<path d="M65.7876 97.2344V97.101H65.6543V96.8344H65.521V96.5677H65.3876V96.301H65.2543V96.1677H65.121V95.901H64.9876V95.6344H64.8543V95.3677H64.721V95.2344H64.5876V94.8344H64.4543V94.5677H64.321V94.1677H64.1876V93.901H64.0543V93.501H63.921V93.2344H63.7876V92.8344H63.6543V92.4344H63.521V91.901H63.3876V91.3677H63.2543V90.9677H63.121V90.4344H62.9876V89.6344H62.8543V88.8344H62.721V88.1677H62.5876V87.101H62.4543V85.901H62.321V84.301H62.1876V82.5677H62.0543V80.701H61.921V79.101H61.7876V78.1677H61.6543V77.6344H61.921V77.501H62.4543V77.3677H62.9876V77.2344H64.0543V77.101H66.321V77.2344H67.2543V77.3677H67.6543V77.501H68.1876V77.6344H68.721V77.7677H68.9876V77.901H69.2543V78.0344H69.521V78.1677H69.7876V78.301H70.0543V78.4344H70.321V78.5677H70.5876V78.701H70.721V78.8344H70.8543V78.9677H71.121V79.101H71.2543V79.2344H71.3876V79.3677H71.6543V79.501H71.7876V79.6344H71.921V79.7677H72.0543V79.901H72.1876V80.0344H72.321V80.1677H72.4543V80.301H72.5876V80.4344H72.721V80.5677H72.8543V80.701H72.9876V80.9677H73.121V81.101H73.2543V81.2344H73.3876V81.3677H73.521V81.6344H73.6543V81.901H73.7876V82.0344H73.921V82.301H74.0543V82.4344H74.1876V82.8344H74.321V83.101H74.4543V83.3677H74.5876V83.7677H74.721V84.1677H74.8543V84.701H74.9876V85.3677H75.121V86.4344H75.2543V87.7677H75.121V89.101H74.9876V89.6344H74.8543V90.0344H74.721V90.5677H74.5876V90.9677H74.4543V91.2344H74.321V91.501H74.1876V91.7677H74.0543V92.0344H73.921V92.301H73.7876V92.5677H73.6543V92.701H73.521V92.9677H73.3876V93.101H73.2543V93.2344H73.121V93.501H72.9876V93.6344H72.8543V93.7677H72.721V94.0344H72.5876V94.1677H72.4543V94.301H72.1876V94.4344H72.0543V94.5677H71.921V94.701H71.7876V94.8344H71.6543V94.9677H71.521V95.101H71.3876V95.2344H71.2543V95.3677H70.9876V95.501H70.8543V95.6344H70.5876V95.7677H70.4543V95.901H70.1876V96.0344H69.921V96.1677H69.7876V96.301H69.3876V96.4344H69.121V96.5677H68.8543V96.701H68.4543V96.8344H67.921V96.9677H67.521V97.101H66.5876V97.2344" fill="url(#paint1_radial_101_357)"/>
<path d="M93.9607 67.6931C94.3647 70.4744 96.6887 72.4384 99.15 72.0811C101.611 71.7224 103.279 69.1784 102.875 66.3971C102.471 63.6157 100.147 61.6517 97.686 62.0091C95.2247 62.3664 93.5567 64.9117 93.9607 67.6931Z" fill="#131112"/>
<path d="M66.6103 71.6674C67.0143 74.4488 69.125 76.4434 71.3237 76.1248C73.5237 75.8048 74.9783 73.2914 74.5743 70.5101C74.1703 67.7288 72.0597 65.7328 69.861 66.0528C67.661 66.3728 66.2063 68.8861 66.6103 71.6674Z" fill="#131112"/>
<path d="M78.6256 68.5498C79.4896 70.0111 79.9162 71.7098 79.9149 73.4151C79.9162 75.6151 79.2043 77.8191 77.8309 79.5231C77.2003 80.3151 76.3429 81.0938 76.0349 82.2284C75.9656 82.4924 75.9336 82.7591 75.9336 83.0244C75.9363 83.9991 76.3576 84.9404 76.9736 85.6671C77.7549 86.5858 78.7949 87.1884 79.8136 87.7044C79.9789 87.7871 80.1789 87.7218 80.2616 87.5578C80.3456 87.3938 80.2789 87.1925 80.1149 87.1098C79.1189 86.6071 78.1629 86.0391 77.4829 85.2364C76.9509 84.6124 76.5989 83.7991 76.6003 83.0244C76.6003 82.8138 76.6256 82.6044 76.6802 82.3991C76.9082 81.5111 77.6669 80.7778 78.3496 79.9418C79.8296 78.1045 80.5816 75.7565 80.5816 73.4151C80.5816 71.5991 80.1296 69.7845 79.2003 68.2111C79.1069 68.0525 78.9016 68.0004 78.7442 68.0938C78.5856 68.1871 78.5323 68.3911 78.6256 68.5498" fill="#131112"/>
<path d="M93.2885 49.6913C96.5351 49.71 101.439 51.2647 105.15 53.8953C105.412 54.0807 105.227 54.4953 104.914 54.4233C102.892 53.9607 98.9018 53.1913 94.8045 53.2193C90.4911 53.2487 87.7551 53.786 86.6631 54.0514C86.4338 54.1074 86.2298 53.8793 86.3178 53.662C87.6045 50.4473 89.8805 49.6727 93.2885 49.6913" fill="#54362C"/>
<path d="M66.5108 53.7137C64.1855 54.4537 61.0962 57.0376 59.1602 60.3896C59.0242 60.627 59.2708 60.9817 59.4762 60.8443C60.7988 59.9497 63.4495 58.3243 66.3975 57.4403C69.5002 56.5097 71.6122 56.4177 72.4682 56.4297C72.6482 56.4323 72.7308 56.1683 72.6081 55.979C70.7975 53.1777 68.9508 52.9377 66.5108 53.7137Z" fill="#54362C"/>
<path d="M89.7541 89.2087C87.1128 89.8247 84.2821 89.4221 81.7088 90.2807C81.1261 90.4754 80.5461 90.7461 80.1461 91.2127C79.7461 91.6781 79.5661 92.3767 79.8474 92.922C80.0474 93.3114 80.4395 93.5634 80.8381 93.7407C82.3741 94.4247 84.1581 94.23 85.7834 93.798C89.6101 92.7807 93.0794 90.9154 96.0901 88.3167C96.2648 88.1647 96.4434 88.0047 96.5301 87.79C96.8901 86.91 95.8354 87.306 95.4474 87.4194C94.7794 87.6127 94.1208 87.8354 93.4634 88.0607C92.2381 88.478 91.0154 88.9141 89.7541 89.2087" fill="#893734"/>
<path d="M93.458 93.6639C91.7847 95.4865 89.33 96.5839 86.8554 96.6145C86.6714 96.6172 86.5247 96.7692 86.5274 96.9532C86.5287 97.1372 86.6807 97.2839 86.8647 97.2812C89.5287 97.2452 92.1447 96.0759 93.95 94.1145C94.074 93.9785 94.0647 93.7679 93.93 93.6439C93.794 93.5185 93.5834 93.5279 93.458 93.6639Z" fill="#131112"/>
<path d="M99.7896 62.0017C99.0843 61.7084 98.3282 61.5697 97.5736 61.5697C96.4576 61.5697 95.3402 61.8724 94.3749 62.4377C92.7602 63.387 91.6096 65.011 91.1229 66.8017C91.0749 66.979 91.1803 67.1631 91.3576 67.2111C91.5363 67.2591 91.7189 67.1537 91.7669 66.9764C92.2083 65.3417 93.2669 63.8591 94.7123 63.0124C95.5723 62.5084 96.5776 62.2364 97.5736 62.2364C98.2469 62.2364 98.9163 62.3604 99.5336 62.6177C99.7043 62.6884 99.8989 62.607 99.9696 62.4377C100.04 62.267 99.9603 62.0724 99.7896 62.0017" fill="#131112"/>
<path d="M71.378 65.9553C70.7927 65.7886 70.186 65.6979 69.582 65.6979C68.67 65.6979 67.762 65.9046 66.9527 66.3699C65.6047 67.1473 64.6087 68.658 64.518 70.3833C64.5087 70.5673 64.65 70.7246 64.834 70.7339C65.018 70.7433 65.174 70.602 65.1833 70.418C65.2567 68.9326 66.1367 67.606 67.2847 66.9473C67.9807 66.5486 68.77 66.3646 69.582 66.3646C70.1193 66.3646 70.666 66.4459 71.1954 66.5966C71.3727 66.6473 71.558 66.5446 71.6073 66.3673C71.658 66.1899 71.5553 66.0059 71.378 65.9553" fill="#131112"/>
<path d="M53.0617 78.3352C54.4271 82.6205 52.9057 69.2845 55.0937 65.3539C57.2804 61.4232 60.4591 58.1525 63.5991 54.9325C70.0284 48.3379 76.4564 41.7445 82.8857 35.1512C80.8564 43.0605 75.407 50.0285 68.2204 53.9072C82.7577 55.7325 97.9697 46.6885 103.307 33.0445C103.606 41.6845 108.722 50.0045 116.3 54.1672C119.219 55.7712 122.448 56.7899 125.243 58.5979C128.039 60.4059 130.458 63.3165 130.407 66.6459L137.743 59.1405C137.743 59.1405 136.226 18.1179 104.684 11.6539C73.1444 5.18989 58.8457 27.2206 58.8457 27.2206C58.8457 27.2206 41.7364 42.7725 53.0617 78.3352" fill="#54362C"/>
<path d="M126.676 63.8214C123.92 69.8787 123.817 75.5334 128.115 77.4894C132.412 79.4441 139.481 76.9601 142.237 70.9014C144.995 64.8441 143.745 58.3494 139.448 56.3934C135.151 54.4374 129.433 57.7641 126.676 63.8214" fill="#A56345"/>
<path d="M142.426 58.8953C142.338 58.8913 134.332 59.6087 127.744 72.882C127.662 73.046 127.729 73.246 127.894 73.3287C128.06 73.41 128.26 73.3433 128.341 73.178C131.593 66.6367 135.154 63.238 137.884 61.4673C139.25 60.5833 140.409 60.106 141.222 59.8487C141.628 59.7207 141.948 59.6473 142.164 59.6073L142.406 59.5673L142.478 59.5593C142.662 59.5447 142.8 59.3833 142.785 59.2007C142.77 59.0167 142.609 58.8807 142.426 58.8953" fill="#131112"/>
<path d="M57.1763 61.8739C52.8043 68.2352 50.5723 75.9499 50.5723 83.6539C50.5723 89.4206 51.823 95.1819 54.371 100.369C54.4523 100.533 54.6509 100.602 54.8163 100.521C54.9816 100.439 55.0496 100.239 54.9683 100.074C52.4696 94.9859 51.2389 89.3232 51.2389 83.6539C51.2389 76.0779 53.4363 68.4926 57.7256 62.2513C57.8296 62.0993 57.7909 61.8912 57.6403 61.7872C57.4883 61.6832 57.2803 61.7219 57.1763 61.8739Z" fill="#131112"/>
<path d="M120.303 9.54275C120.399 10.1627 120.446 10.7881 120.446 11.4148C120.447 14.9948 118.902 18.5828 116.243 20.9814C116.106 21.1054 116.095 21.3161 116.219 21.4521C116.342 21.5894 116.553 21.6001 116.69 21.4761C119.497 18.9401 121.111 15.1841 121.113 11.4148C121.113 10.7548 121.063 10.0947 120.962 9.44138C120.933 9.25871 120.763 9.13473 120.581 9.16273C120.399 9.19073 120.274 9.36141 120.303 9.54275" fill="#131112"/>
<path d="M42.416 40.4238H42.5426V39.8832H42.416V40.4238Z" fill="white"/>
<path d="M41.1797 48.4961C41.4184 45.7908 41.805 43.0974 42.4157 40.4241C42.4197 40.4068 42.425 40.3867 42.429 40.3694C42.4304 40.3614 42.4317 40.3534 42.4344 40.3467C42.4397 40.3174 42.4464 40.2921 42.453 40.2628C42.461 40.2308 42.4677 40.1988 42.4757 40.1654C42.4797 40.1494 42.4837 40.1334 42.4877 40.1174C42.4917 40.1001 42.4944 40.0867 42.4984 40.0694C42.5037 40.0467 42.509 40.0254 42.5144 40.0027C42.517 39.9934 42.5184 39.9841 42.521 39.9747C42.5277 39.9454 42.5357 39.9161 42.5424 39.8854C42.5424 39.8841 42.5424 39.8841 42.5424 39.8827C44.461 31.9134 48.4024 24.5014 53.7344 18.2774C59.4317 16.1107 65.6224 15.2708 71.5957 15.2708C72.0557 15.2708 72.513 15.2761 72.9704 15.2854C63.377 20.2347 58.8464 27.2201 58.8464 27.2201C58.8464 27.2201 54.2717 31.3787 51.4184 40.3134C47.741 42.6854 44.3037 45.4321 41.1797 48.4961Z" fill="#8C6346"/>
<path d="M144.658 19.5938C144.658 19.5924 144.658 19.5924 144.658 19.5911C144.658 19.5924 144.658 19.5924 144.658 19.5938ZM144.631 19.543C144.63 19.5417 144.63 19.5404 144.629 19.5377C144.63 19.5404 144.63 19.5417 144.631 19.543ZM144.599 19.4857C144.591 19.4697 144.582 19.4537 144.573 19.4377C144.582 19.4537 144.591 19.4697 144.599 19.4857ZM144.561 19.415C144.557 19.407 144.551 19.3977 144.546 19.3897C144.551 19.3977 144.555 19.407 144.561 19.415ZM144.53 19.3604C144.527 19.3551 144.523 19.3484 144.521 19.3417C144.523 19.3484 144.527 19.3551 144.53 19.3604ZM144.501 19.307C144.498 19.303 144.497 19.2991 144.494 19.2964C144.497 19.2991 144.498 19.303 144.501 19.307ZM144.471 19.2551C144.47 19.2537 144.47 19.2524 144.469 19.251C144.47 19.2524 144.47 19.2537 144.471 19.2551Z" fill="white"/>
<path d="M133.327 38.5605C131.319 33.2219 128.403 27.6432 124.178 22.9005C126.803 21.4219 129.214 19.5005 131.26 17.3272C133.147 15.3219 134.77 13.1165 136.238 10.8005C139.46 12.6312 142.28 15.3645 144.47 19.2512C144.471 19.2525 144.471 19.2539 144.472 19.2552C144.48 19.2685 144.487 19.2819 144.495 19.2966C144.498 19.2992 144.499 19.3032 144.502 19.3072C144.508 19.3192 144.515 19.3299 144.522 19.3419C144.524 19.3485 144.528 19.3552 144.531 19.3605C144.536 19.3699 144.542 19.3805 144.547 19.3898C144.552 19.3978 144.558 19.4072 144.562 19.4152C144.566 19.4232 144.57 19.4298 144.574 19.4378C144.583 19.4538 144.592 19.4699 144.6 19.4859C144.61 19.5032 144.62 19.5205 144.63 19.5378C144.631 19.5405 144.631 19.5418 144.632 19.5432C144.64 19.5592 144.65 19.5752 144.659 19.5912C144.659 19.5925 144.659 19.5925 144.659 19.5939C147.107 24.0779 148.3 28.5032 148.907 33.0458C148.662 33.2045 148.419 33.3672 148.171 33.5178C143.67 36.2538 138.56 37.9725 133.327 38.5605" fill="#8C6346"/>
<path d="M51.418 40.3125C54.2713 31.3778 58.846 27.2192 58.846 27.2192C58.846 27.2192 63.3767 20.2338 72.97 15.2845C82.7287 15.4938 91.7513 17.8699 96.8633 20.2499C101.051 22.1992 105.037 24.7805 109.567 25.6752C110.738 25.9072 111.913 26.0165 113.085 26.0165C116.93 26.0152 120.738 24.8365 124.177 22.9005C128.402 27.6432 131.318 33.2219 133.326 38.5605C131.978 38.7125 130.621 38.7885 129.265 38.7885C128.087 38.7885 126.909 38.7312 125.737 38.6152C117.445 37.7872 109.722 34.1499 101.643 32.1005C96.534 30.8045 91.2633 30.1605 85.9913 30.1605C78.8406 30.1605 71.686 31.3472 64.9326 33.7018C60.1846 35.3578 55.6433 37.5885 51.418 40.3125Z" fill="#8C6346"/>
<path d="M283.758 378.834C282.6 374.145 280.724 369.455 277.448 366.757C274.443 364.279 270.664 363.809 267.066 363.913C260.62 364.098 253.741 366.255 249.581 372.421C245.423 378.582 244.88 387.261 244.525 395.314L244.216 400.539C246.371 414.565 246.427 429.093 244.381 443.145C244.013 445.667 243.576 448.218 243.757 450.773C243.937 453.326 244.845 455.947 246.597 457.275C246.538 456.224 246.48 455.174 246.421 454.123C248.484 460.905 254.912 465.078 260.529 463.282C260.443 462.712 260.354 462.14 260.269 461.57C261.948 463.816 264.56 464.662 267.013 464.5C269.467 464.339 271.822 463.295 274.136 462.262C277.896 460.582 281.924 458.646 284.096 454.453C286.009 450.759 286.072 446.078 286.073 441.674C286.076 430.409 286.077 419.142 286.08 407.877C286.081 398.107 286.062 388.166 283.758 378.834" fill="#D1BCAC"/>
<path d="M260.122 403.227C260.618 397.942 263.462 393.215 265.337 388.25C267.209 383.282 267.962 377.221 264.685 373.046C263.634 375.723 261.902 378.134 259.698 379.985C261.993 368.498 258.078 355.962 249.657 347.821C248.775 349.183 247.258 350.115 245.645 350.29C247.237 346.818 247.075 342.593 245.225 339.251C245.202 341.726 243.709 344.134 241.501 345.253C237.179 330.947 232.679 316.285 223.522 304.477C219.987 299.918 215.579 295.863 210.662 292.749C201.117 291.987 191.623 290.454 182.049 290.235C156.235 289.647 133.162 304.717 132.415 332.205C132.058 345.345 132.617 358.962 135.313 371.838C136.811 378.995 138.945 386.021 141.69 392.798C143.815 398.041 151.362 407.035 151.731 412.262C151.465 408.489 151.199 404.715 150.931 400.942C151.127 403.711 153.013 407.077 153.775 409.791C154.647 412.899 155.401 416.041 156.033 419.206C157.298 425.538 158.081 431.965 158.375 438.414C158.671 444.863 158.477 451.334 157.786 457.754C157.091 464.221 157.053 470.655 156.934 477.165C156.902 478.943 156.869 480.722 156.837 482.502C156.818 483.562 156.802 484.648 157.145 485.654C157.486 486.658 158.262 487.582 159.301 487.798C159.339 486.906 159.378 486.014 159.417 485.122C159.309 487.616 162.053 490.574 163.983 491.773C166.185 493.141 169.645 493.075 172.202 493.366C176.279 493.827 180.397 494.091 184.501 494.157C184.501 494.157 185.469 500.815 196.583 502.739C203.666 503.966 210.747 507.478 217.505 505.024C228.503 501.031 232.545 487.795 234.551 476.267C238.139 455.643 239.982 434.715 240.05 413.783C245.903 415.897 252.821 414.75 257.678 410.861C256.355 410.45 255.031 410.039 253.707 409.629C255.777 410.329 258.017 410.349 260.131 409.823C260.123 407.629 259.917 405.413 260.122 403.227" fill="#E9D6C8"/>
<path d="M296.602 475.978C295.437 477.026 294.273 478.074 293.107 479.123C294.781 478.769 296.153 477.756 296.602 475.978Z" fill="#E9D6C8"/>
<path d="M330.701 419.581C329.372 421.812 328.355 424.325 327.392 426.718C325.391 431.689 322.677 437.1 317.595 438.79C317.341 437.464 317.091 436.138 316.839 434.813C316.528 438.934 313.571 442.734 309.652 444.049C309.713 442.666 309.776 441.285 309.839 439.902C308.171 445.13 304.065 449.524 298.963 451.541C296.555 446.301 292.897 441.64 288.384 438.052C288.121 439.666 288.436 441.369 289.257 442.784C286.712 440.654 284.661 437.96 283.219 434.972C284.709 443.694 285.289 452.481 284.205 461.274C283.603 466.17 282.565 471.495 285.047 475.761C286.605 478.437 290.284 479.721 293.108 479.124C294.273 478.074 295.437 477.026 296.603 475.978C296.153 477.757 294.781 478.77 293.108 479.124C292.497 479.673 291.888 480.221 291.279 480.77C299.159 484.714 319.988 481.289 325.685 474.566C331.384 467.843 333.303 458.636 333.3 449.824C333.297 441.01 331.584 432.294 330.923 423.506C330.824 422.198 330.756 420.889 330.701 419.581" fill="#E9D6C8"/>
<path d="M289.258 442.782C288.437 441.367 288.122 439.664 288.385 438.05C292.898 441.638 296.555 446.299 298.963 451.539C304.066 449.522 308.171 445.128 309.839 439.9C309.777 441.283 309.714 442.664 309.653 444.047C313.571 442.732 316.529 438.932 316.839 434.811C317.091 436.136 317.342 437.462 317.595 438.788C322.678 437.098 325.391 431.687 327.393 426.716C328.355 424.323 329.373 421.81 330.702 419.579C330.09 404.926 332.049 390.247 332.675 375.571C333.359 359.583 332.309 342.976 325.026 328.726C326.797 330.691 328.567 332.656 330.339 334.622C330.069 320.571 309.603 307.944 297.31 301.131C285.018 294.319 270.571 292.498 256.518 292.396C242.465 292.295 228.406 293.776 214.374 293.004C213.135 292.935 211.898 292.846 210.662 292.747C215.579 295.862 219.987 299.916 223.522 304.475C232.679 316.283 237.179 330.946 241.501 345.251C243.709 344.132 245.202 341.724 245.225 339.25C247.075 342.591 247.237 346.816 245.645 350.288C247.258 350.114 248.775 349.182 249.657 347.819C258.078 355.96 261.993 368.496 259.698 379.983C261.902 378.132 263.634 375.722 264.685 373.044C267.962 377.219 267.209 383.28 265.337 388.248C263.462 393.214 260.618 397.94 260.122 403.226C259.917 405.411 260.123 407.627 260.131 409.822C263.249 409.046 266.085 407.076 267.658 404.267C270.038 403.742 272.418 403.218 274.798 402.694C278.069 413.272 281.357 424.07 283.219 434.97C284.662 437.958 286.713 440.652 289.258 442.782" fill="#7D7372"/>
<path d="M235.51 306.733C236.578 307.857 237.644 308.981 238.712 310.104C241.331 308.696 242.383 305.357 242.078 302.399C241.775 299.441 240.403 296.718 239.255 293.977C237.103 288.834 236.323 283.772 235.412 278.341C232.772 262.59 224.624 247.333 209.902 239.882C198.879 234.304 184.384 234.742 175.14 242.941C177.455 239.14 179.771 235.338 182.086 231.537C174.516 231.67 167.216 236.418 164.023 243.282C163.799 235.808 157.419 229.013 149.974 228.319C154.923 234.963 156.982 234.313 154.296 242.15C144.502 237.288 132.035 242.744 125.723 251.673C119.411 260.604 117.88 271.992 117.208 282.906C116.538 293.822 116.486 305.034 112.534 315.23C111.328 318.335 109.764 321.339 109.155 324.615C108.547 327.89 109.086 331.626 111.534 333.885C113.98 336.146 118.591 335.99 120.142 333.042C125.247 345.76 138.026 355.026 151.7 355.929C157.763 362.174 164.548 363.193 173.123 364.688C172.547 361.569 171.97 358.449 171.394 355.33C176.082 358.034 181.555 359.359 186.96 359.101C186.607 357.163 186.252 355.228 185.898 353.293C195.16 351.288 204.422 349.282 213.683 347.277C220.547 345.792 227.844 344.069 232.688 338.986C237.103 334.352 238.69 327.585 238.343 321.194C238.075 316.223 236.554 311.557 235.51 306.733" fill="#E9D6C8"/>
<path d="M142.173 287.37C141.99 286.855 141.905 286.321 141.905 285.779C141.904 284.207 142.626 282.567 143.665 281.293C145.068 279.566 147.002 278.302 148.84 276.897C150.676 275.489 152.501 273.825 153.353 271.577L153.041 271.459L152.725 271.354C152.082 273.286 150.725 274.981 148.98 276.029C148.853 276.106 148.792 276.258 148.829 276.401C148.868 276.543 148.997 276.645 149.145 276.649L149.446 276.651C156.912 276.642 163.945 270.865 165.354 263.522L165.026 263.459L164.693 263.455V263.557C164.697 266.965 166.578 270.358 169.268 272.994C171.961 275.629 175.474 277.518 178.838 277.865C178.961 277.878 179.081 277.822 179.15 277.719L179.166 277.375C178.374 275.903 177.584 274.429 176.793 272.957L176.5 273.114L176.23 273.311C181.101 279.933 189.002 284.206 197.21 284.655C200.553 284.827 203.709 287.686 206.198 291.419C208.688 295.142 210.51 299.697 211.284 303.095C211.325 303.275 211.504 303.387 211.682 303.347C211.862 303.306 211.974 303.127 211.933 302.947C211.137 299.458 209.296 294.857 206.752 291.049C204.208 287.251 200.958 284.206 197.246 283.99C189.246 283.554 181.512 279.373 176.768 272.917C176.664 272.775 176.469 272.739 176.321 272.833C176.173 272.926 176.122 273.118 176.205 273.271C176.996 274.745 177.788 276.219 178.58 277.691L178.873 277.534L178.906 277.202C175.742 276.881 172.332 275.063 169.734 272.518C167.132 269.973 165.356 266.711 165.36 263.557V263.463C165.362 263.29 165.232 263.145 165.06 263.127C164.888 263.11 164.732 263.227 164.7 263.397C163.373 270.402 156.568 275.993 149.446 275.985L149.158 275.982L149.152 276.315L149.324 276.601C151.208 275.466 152.662 273.651 153.357 271.565C153.414 271.393 153.322 271.206 153.153 271.145C152.982 271.085 152.793 271.173 152.729 271.342C151.96 273.389 150.242 274.985 148.434 276.369C146.628 277.754 144.642 279.038 143.148 280.871C142.033 282.245 141.241 284.003 141.238 285.779C141.238 286.39 141.334 287.002 141.545 287.594C141.606 287.767 141.797 287.858 141.972 287.795C142.145 287.734 142.234 287.543 142.173 287.37" fill="#131112"/>
<path d="M153.967 282.962C153.967 285.023 152.297 286.695 150.235 286.695C148.174 286.695 146.502 285.023 146.502 282.962C146.502 280.901 148.174 279.229 150.235 279.229C152.297 279.229 153.967 280.901 153.967 282.962Z" fill="#131112"/>
<path d="M180.049 282.013C180.049 284.074 181.719 285.746 183.782 285.746C185.842 285.746 187.513 284.074 187.513 282.013L187.505 281.922C185.581 281.057 183.754 279.982 182.069 278.714C180.874 279.337 180.049 280.573 180.049 282.013Z" fill="#131112"/>
<path d="M134.937 304.231C132.233 307.139 134.322 318.47 135.114 320.902C137.106 327.012 141.26 332.475 147.097 335.34C146.228 332.912 145.36 330.484 144.49 328.055C146.836 334.088 153.924 337.839 160.23 336.387C159.282 331.359 156.444 322.324 157.818 317.395C158.472 315.047 162.345 314.199 164.632 312.439C167.146 310.504 168.06 307.771 168.06 307.771C170.604 312.97 179.202 317.263 180.052 322.104C180.901 326.947 179.596 331.879 178.3 336.62C180.993 334.3 183.686 331.979 186.38 329.658C186.664 331.612 185.414 333.682 183.552 334.339C189.224 337.526 196.749 337.046 201.97 333.164C207.19 329.283 209.82 322.215 208.404 315.867C210.48 316.514 212.556 317.16 214.63 317.808C211.85 306.946 207.166 295.942 198.209 289.199C189.449 282.603 182.008 284.924 172.328 287.179C165.625 288.742 160.482 287.176 153.737 287.222C149.558 287.251 145.273 288.208 141.89 290.663C136.389 294.656 133.676 302.222 127.322 304.64C130.134 305.078 133.061 304.748 135.704 303.695C135.414 303.811 135.16 303.992 134.937 304.231" fill="#F6E5DA"/>
<path d="M133.529 272.864C133.591 273.408 133.62 273.954 133.62 274.498C133.621 278.086 132.347 281.664 130.704 284.948C128.813 288.732 126.411 292.299 124.717 296.254C123.56 298.956 122.753 301.916 122.752 304.86C122.752 306.23 122.928 307.595 123.325 308.924C123.379 309.1 123.564 309.2 123.74 309.148C123.916 309.095 124.017 308.91 123.964 308.734C123.587 307.472 123.419 306.172 123.419 304.86C123.419 302.039 124.197 299.159 125.329 296.516C126.988 292.638 129.381 289.082 131.301 285.246C132.965 281.914 134.285 278.246 134.287 274.498C134.287 273.93 134.256 273.359 134.192 272.788C134.171 272.606 134.007 272.475 133.824 272.495C133.64 272.516 133.509 272.68 133.529 272.864" fill="#131112"/>
<path d="M125.276 307.114C125.335 307.549 125.363 307.982 125.363 308.417C125.366 311.098 124.299 313.793 123.282 316.414C122.375 318.762 121.486 321.289 121.484 323.835C121.484 324.599 121.564 325.363 121.75 326.123C121.794 326.302 121.975 326.411 122.154 326.367C122.332 326.325 122.442 326.143 122.398 325.965C122.226 325.262 122.151 324.553 122.151 323.835C122.148 321.446 122.999 318.987 123.904 316.654C124.915 314.037 126.027 311.275 126.03 308.417C126.03 307.954 126 307.49 125.936 307.023C125.911 306.841 125.743 306.714 125.56 306.738C125.378 306.763 125.251 306.931 125.276 307.114" fill="#131112"/>
<path d="M124.143 322.579C124.086 323.769 124.057 324.961 124.057 326.153C124.057 328.246 124.146 330.339 124.323 332.423C124.339 332.607 124.501 332.743 124.685 332.727C124.867 332.713 125.003 332.551 124.987 332.367C124.811 330.301 124.723 328.227 124.723 326.153C124.723 324.971 124.753 323.79 124.81 322.611C124.818 322.427 124.677 322.271 124.493 322.262C124.309 322.253 124.153 322.395 124.143 322.579" fill="#131112"/>
<path d="M202.143 263.126C203.151 263.337 203.966 263.953 204.658 264.789C205.349 265.622 205.903 266.669 206.374 267.679C208.143 271.482 209.65 275.406 210.877 279.417C211.197 280.459 211.57 281.601 212.142 282.586C212.711 283.57 213.497 284.414 214.633 284.783L214.735 284.466L214.414 284.382C214.271 284.925 214.203 285.449 214.203 285.954C214.203 287.715 215.025 289.214 216.229 290.483C217.434 291.755 219.026 292.822 220.643 293.767C220.802 293.859 221.006 293.806 221.099 293.647C221.191 293.489 221.138 293.283 220.979 293.191C219.387 292.262 217.842 291.219 216.713 290.025C215.581 288.826 214.871 287.499 214.87 285.954C214.87 285.507 214.93 285.042 215.058 284.55C215.103 284.379 215.007 284.203 214.839 284.149C213.91 283.847 213.243 283.155 212.718 282.251C212.195 281.351 211.83 280.254 211.514 279.221C210.278 275.182 208.761 271.229 206.978 267.398C206.497 266.365 205.923 265.273 205.171 264.363C204.422 263.457 203.481 262.725 202.281 262.473C202.101 262.435 201.923 262.55 201.886 262.731C201.849 262.911 201.963 263.087 202.143 263.126" fill="#131112"/>
<path d="M219.4 289.337C219.893 292.134 221.385 294.735 223.548 296.573C223.688 296.693 223.898 296.675 224.017 296.534C224.137 296.394 224.12 296.183 223.98 296.065C221.937 294.331 220.52 291.861 220.057 289.221C220.025 289.039 219.852 288.918 219.67 288.95C219.489 288.982 219.368 289.155 219.4 289.337" fill="#131112"/>
<path d="M224.989 298.363C226.673 301.687 227.561 305.412 227.561 309.138C227.561 309.268 227.56 309.398 227.558 309.528C227.554 309.712 227.701 309.863 227.886 309.867C228.07 309.87 228.221 309.723 228.225 309.539C228.226 309.406 228.228 309.271 228.228 309.138C228.228 305.306 227.316 301.48 225.584 298.063C225.501 297.898 225.301 297.833 225.136 297.915C224.972 297.999 224.906 298.199 224.989 298.363" fill="#131112"/>
<path d="M165.073 319.38C166.253 319.838 167.515 320.064 168.778 320.064C170.147 320.064 171.515 319.798 172.779 319.264C172.949 319.194 173.029 318.998 172.957 318.828C172.886 318.659 172.69 318.579 172.521 318.651C171.342 319.147 170.061 319.398 168.778 319.398C167.595 319.398 166.414 319.184 165.313 318.759C165.142 318.692 164.949 318.778 164.882 318.95C164.815 319.122 164.901 319.314 165.073 319.38" fill="#131112"/>
<path d="M175.893 298.64C175.761 299.228 175.459 299.806 174.955 300.33C174.474 300.831 173.86 301.19 173.346 301.656C172.659 302.282 172.622 302.782 172.504 303.61C172.398 304.34 171.943 305.087 171.499 305.672C169.767 307.966 165.866 307.391 164.062 305.46C163.389 304.736 163.346 303.824 162.793 303.076C162.139 302.194 160.991 301.804 160.286 300.962C159.674 300.228 159.469 299.222 159.527 298.268C159.654 296.24 160.235 294.883 162.026 293.923C163.709 293.022 165.67 292.69 167.561 292.69C169.721 292.69 172.205 293.235 173.998 294.478C175.407 295.455 176.237 297.09 175.893 298.64" fill="#574D50"/>
<path d="M168.109 306.53C167.557 305.377 167.266 304.094 167.266 302.815L167.27 302.567C167.276 302.383 167.13 302.23 166.946 302.223C166.762 302.218 166.609 302.363 166.604 302.547L166.6 302.815C166.6 304.195 166.912 305.573 167.508 306.818C167.586 306.985 167.785 307.054 167.952 306.975C168.117 306.895 168.188 306.697 168.109 306.53" fill="#131112"/>
<path d="M173.57 301.464C173.515 301.317 173.487 301.156 173.487 300.996C173.487 300.741 173.556 300.485 173.687 300.274C173.899 299.929 174.294 299.68 174.698 299.638C174.882 299.62 175.014 299.454 174.994 299.272C174.975 299.089 174.81 298.957 174.627 298.976C174.01 299.044 173.45 299.397 173.12 299.924C172.92 300.248 172.82 300.621 172.82 300.996C172.82 301.233 172.86 301.472 172.946 301.697C173.01 301.87 173.202 301.957 173.374 301.893C173.547 301.829 173.634 301.637 173.57 301.465" fill="#131112"/>
<path d="M163.006 301.993C162.96 301.077 162.277 300.276 161.378 300.087C161.197 300.049 161.021 300.167 160.985 300.347C160.949 300.528 161.065 300.703 161.245 300.74C161.824 300.849 162.322 301.435 162.341 302.023C162.349 302.207 162.504 302.349 162.688 302.341C162.872 302.333 163.014 302.177 163.006 301.993" fill="#131112"/>
<path d="M226.738 343.636C229.026 342.514 231.139 341.092 232.929 339.214C237.033 334.902 238.721 328.816 238.722 322.882C238.722 322.312 238.706 321.741 238.675 321.175C238.402 316.148 236.871 311.464 235.835 306.661L235.509 306.732L235.267 306.961C236.335 308.085 237.402 309.209 238.47 310.333C238.573 310.441 238.737 310.468 238.869 310.397C241.345 309.057 242.459 306.157 242.461 303.397C242.461 303.05 242.443 302.705 242.409 302.365C242.094 299.325 240.702 296.575 239.562 293.847C239.399 293.457 239.243 293.068 239.095 292.68C239.03 292.508 238.837 292.421 238.665 292.486C238.493 292.553 238.407 292.745 238.473 292.917C238.623 293.312 238.781 293.708 238.946 294.104C240.103 296.861 241.453 299.556 241.745 302.433C241.778 302.75 241.794 303.073 241.794 303.397C241.795 305.993 240.731 308.645 238.553 309.809L238.711 310.102L238.953 309.873C237.885 308.751 236.818 307.627 235.751 306.503C235.649 306.395 235.485 306.368 235.354 306.437C235.222 306.507 235.151 306.657 235.183 306.803C236.233 311.649 237.746 316.298 238.01 321.21C238.039 321.766 238.055 322.324 238.055 322.882C238.055 328.694 236.395 334.612 232.446 338.754C230.722 340.562 228.679 341.942 226.445 343.037C226.279 343.117 226.211 343.317 226.291 343.482C226.373 343.648 226.573 343.717 226.738 343.636Z" fill="#131112"/>
<path d="M132.335 349.056C137.96 353.183 144.699 355.799 151.678 356.259L151.699 355.927L151.46 356.159C157.606 362.492 164.506 363.523 173.064 365.014L173.359 364.92L173.45 364.626C172.874 361.507 172.296 358.387 171.719 355.268L171.392 355.328L171.226 355.618C175.58 358.128 180.599 359.463 185.626 359.463C186.075 359.463 186.526 359.452 186.975 359.431L187.22 359.306L187.287 359.039C186.934 357.102 186.579 355.166 186.224 353.231L185.896 353.291L185.967 353.616C195.23 351.611 204.491 349.607 213.753 347.602C215.23 347.28 216.728 346.951 218.222 346.576C218.4 346.532 218.508 346.351 218.464 346.172C218.419 345.994 218.238 345.886 218.059 345.93C216.579 346.3 215.087 346.63 213.611 346.95C204.35 348.955 195.088 350.96 185.827 352.966C185.651 353.003 185.536 353.174 185.57 353.351C185.923 355.286 186.278 357.222 186.631 359.159L186.959 359.099L186.943 358.766C186.504 358.787 186.064 358.796 185.626 358.796C180.718 358.798 175.81 357.491 171.558 355.04L171.199 355.056C171.094 355.131 171.04 355.262 171.064 355.39C171.64 358.508 172.218 361.628 172.795 364.746L173.122 364.686L173.179 364.358C164.587 362.859 157.919 361.854 151.938 355.695L151.72 355.594C144.882 355.143 138.259 352.576 132.73 348.519C132.582 348.41 132.372 348.442 132.263 348.59C132.155 348.739 132.187 348.947 132.335 349.056" fill="#131112"/>
<path d="M185.137 347.615C185.121 347.998 185.111 348.381 185.111 348.765C185.111 350.358 185.259 351.951 185.554 353.517C185.589 353.698 185.762 353.817 185.943 353.783C186.125 353.749 186.243 353.575 186.209 353.394C185.922 351.869 185.778 350.317 185.778 348.765C185.778 348.391 185.786 348.018 185.803 347.645C185.811 347.461 185.669 347.305 185.485 347.297C185.301 347.289 185.146 347.431 185.137 347.615Z" fill="#131112"/>
<path d="M172.054 355.015C171.13 354.106 170.56 352.831 170.5 351.537C170.492 351.353 170.336 351.21 170.152 351.219C169.968 351.227 169.825 351.383 169.834 351.567C169.904 353.035 170.54 354.458 171.586 355.49C171.718 355.619 171.929 355.618 172.058 355.486C172.188 355.355 172.186 355.143 172.054 355.015" fill="#131112"/>
<path d="M186.691 345.554C186.603 345.915 186.561 346.287 186.561 346.658C186.561 347.737 186.923 348.814 187.602 349.663C187.717 349.807 187.926 349.831 188.07 349.715C188.214 349.601 188.238 349.391 188.122 349.247C187.543 348.525 187.227 347.587 187.227 346.658C187.227 346.338 187.265 346.021 187.339 345.711C187.383 345.533 187.274 345.353 187.095 345.309C186.915 345.265 186.735 345.375 186.691 345.554Z" fill="#131112"/>
<path d="M226.855 340.439C226.014 342.071 224.492 343.355 222.743 343.909C222.567 343.965 222.47 344.152 222.526 344.328C222.582 344.504 222.768 344.6 222.944 344.545C224.868 343.932 226.52 342.539 227.447 340.744C227.531 340.581 227.467 340.38 227.304 340.296C227.14 340.211 226.939 340.275 226.855 340.439" fill="#131112"/>
<path d="M173.288 410.75C178.79 416.234 186.512 419.399 194.274 419.4C194.68 419.4 195.085 419.391 195.49 419.374C195.674 419.366 195.817 419.211 195.809 419.027C195.801 418.843 195.645 418.7 195.461 418.708C195.066 418.726 194.67 418.734 194.274 418.734C186.693 418.735 179.129 415.634 173.758 410.278C173.628 410.148 173.417 410.148 173.286 410.279C173.157 410.408 173.157 410.62 173.288 410.75" fill="#131112"/>
<path d="M186.567 418.219C189.501 421.207 193.464 423.173 197.631 423.658C197.813 423.679 197.979 423.547 198 423.365C198.021 423.182 197.891 423.017 197.707 422.995C193.699 422.53 189.868 420.631 187.043 417.751C186.913 417.621 186.701 417.618 186.571 417.747C186.439 417.877 186.437 418.087 186.567 418.219Z" fill="#131112"/>
<path d="M185.938 422.948C187.256 430.228 188.564 437.675 188.564 444.994C188.564 449.182 188.136 453.327 187.042 457.379C185.632 462.607 183.071 467.724 183.064 473.288V473.326C183.067 473.51 183.218 473.658 183.402 473.656C183.586 473.654 183.734 473.503 183.731 473.319V473.288C183.726 467.935 186.242 462.867 187.684 457.553C188.799 453.432 189.231 449.227 189.231 444.994C189.23 437.595 187.912 430.112 186.594 422.83C186.56 422.648 186.387 422.528 186.206 422.56C186.024 422.594 185.904 422.767 185.938 422.948" fill="#131112"/>
<path d="M185.549 470.711C185.005 472.851 184.73 475.059 184.73 477.269C184.73 478.112 184.77 478.958 184.85 479.798C184.869 479.982 185.032 480.117 185.214 480.098C185.398 480.081 185.532 479.918 185.514 479.735C185.436 478.916 185.397 478.091 185.397 477.269C185.397 475.116 185.665 472.962 186.194 470.875C186.24 470.697 186.132 470.516 185.953 470.47C185.776 470.424 185.594 470.533 185.549 470.711Z" fill="#131112"/>
<path d="M186.055 482.337C185.785 484.769 184.965 487.152 184.563 489.654C184.434 490.463 184.355 491.297 184.355 492.131C184.355 493.884 184.703 495.643 185.689 497.127C185.79 497.28 185.998 497.321 186.151 497.22C186.305 497.117 186.346 496.911 186.243 496.757C185.355 495.42 185.022 493.799 185.022 492.131C185.022 491.339 185.097 490.539 185.221 489.76C185.606 487.333 186.433 484.94 186.718 482.411C186.738 482.228 186.607 482.064 186.425 482.043C186.241 482.023 186.077 482.154 186.055 482.337" fill="#131112"/>
<path d="M239.825 413.04C239.715 412.661 239.665 412.281 239.665 411.9C239.658 410.169 240.717 408.359 241.785 406.755C242.867 405.115 244.041 403.218 244.047 401.198C244.047 400.777 243.995 400.352 243.877 399.926C243.829 399.749 243.645 399.645 243.467 399.694C243.29 399.744 243.186 399.928 243.235 400.105C243.335 400.469 243.381 400.833 243.381 401.198C243.387 402.946 242.309 404.765 241.229 406.387C240.157 408.012 239.005 409.9 238.998 411.9C238.998 412.34 239.057 412.784 239.186 413.226C239.237 413.404 239.422 413.505 239.599 413.453C239.775 413.401 239.877 413.216 239.825 413.04" fill="#131112"/>
<path d="M245.607 404.138C246.729 402.567 247.332 400.646 247.333 398.719C247.333 398.314 247.307 397.909 247.252 397.506C247.227 397.323 247.059 397.195 246.876 397.221C246.695 397.245 246.567 397.413 246.591 397.595C246.641 397.967 246.667 398.343 246.667 398.719C246.667 400.506 246.104 402.298 245.064 403.75C244.957 403.899 244.992 404.107 245.141 404.215C245.291 404.322 245.5 404.287 245.607 404.138" fill="#131112"/>
<path d="M161.447 474.281C161.124 475.129 160.971 476.027 160.971 476.926C160.972 479.37 162.099 481.82 164.084 483.294C164.232 483.403 164.44 483.373 164.549 483.225C164.66 483.077 164.628 482.867 164.48 482.758C162.684 481.431 161.636 479.166 161.637 476.926C161.637 476.103 161.777 475.286 162.071 474.518C162.136 474.346 162.049 474.154 161.877 474.089C161.705 474.022 161.513 474.109 161.447 474.281" fill="#131112"/>
<path d="M165.626 479.541L165.619 479.813C165.623 482.386 167.231 484.869 169.596 485.902C169.766 485.975 169.962 485.898 170.035 485.729C170.108 485.561 170.031 485.363 169.862 485.29C167.755 484.381 166.282 482.106 166.286 479.813L166.291 479.572C166.299 479.387 166.158 479.232 165.974 479.223C165.79 479.214 165.634 479.357 165.626 479.541" fill="#131112"/>
<path d="M275.814 402.621C276.421 402.711 277.033 402.754 277.644 402.754C281.401 402.753 285.141 401.109 287.623 398.271C287.745 398.133 287.73 397.922 287.592 397.801C287.453 397.679 287.244 397.694 287.122 397.833C284.777 400.518 281.206 402.089 277.644 402.087C277.065 402.087 276.485 402.046 275.912 401.962C275.729 401.935 275.56 402.061 275.533 402.243C275.506 402.425 275.632 402.594 275.814 402.621Z" fill="#131112"/>
<path d="M284.24 397.493C284.771 397.596 285.309 397.646 285.848 397.646C287.848 397.645 289.845 396.953 291.396 395.678C291.538 395.561 291.558 395.35 291.441 395.209C291.325 395.066 291.114 395.046 290.972 395.164C289.549 396.336 287.695 396.98 285.848 396.98C285.351 396.98 284.854 396.933 284.368 396.838C284.186 396.804 284.012 396.921 283.977 397.102C283.941 397.282 284.06 397.457 284.24 397.493" fill="#131112"/>
<path d="M277.914 314.923C281.736 315.775 285.105 318.527 286.701 322.102L286.962 322.297L287.264 322.177C287.977 321.299 288.358 320.181 288.358 319.058C288.358 318.691 288.318 318.325 288.234 317.966L287.909 318.043L287.621 318.21C289.681 321.777 293.477 324.263 297.572 324.727C298.9 324.875 300.449 324.871 301.67 325.142C302.28 325.275 302.8 325.477 303.168 325.77C303.536 326.065 303.772 326.435 303.852 327.007C303.876 327.19 304.042 327.318 304.225 327.294C304.408 327.27 304.536 327.102 304.512 326.919C304.418 326.193 304.072 325.63 303.582 325.247C302.845 324.67 301.838 324.45 300.781 324.322C299.721 324.197 298.6 324.173 297.646 324.065C293.772 323.63 290.145 321.254 288.198 317.877C288.116 317.733 287.94 317.673 287.786 317.733C287.633 317.794 287.548 317.958 287.585 318.119C287.657 318.426 287.692 318.742 287.692 319.058C287.693 320.029 287.358 321.006 286.748 321.755L287.006 321.966L287.31 321.83C285.62 318.055 282.096 315.177 278.06 314.273C277.881 314.231 277.702 314.345 277.662 314.525C277.622 314.705 277.734 314.882 277.914 314.923" fill="#131112"/>
<path d="M303.761 323.863C305.632 324.707 307.119 326.392 307.727 328.353C307.782 328.529 307.968 328.627 308.144 328.573C308.32 328.519 308.417 328.331 308.364 328.156C307.695 326.007 306.085 324.184 304.036 323.255C303.869 323.18 303.672 323.253 303.596 323.421C303.52 323.589 303.595 323.787 303.761 323.863" fill="#131112"/>
<path d="M259.292 309.065C261.716 309.201 264.04 310.707 265.156 312.863C265.24 313.026 265.441 313.09 265.605 313.006C265.768 312.921 265.832 312.719 265.746 312.555C264.513 310.183 262.001 308.554 259.329 308.399C259.145 308.389 258.988 308.529 258.977 308.713C258.968 308.897 259.108 309.054 259.292 309.065" fill="#131112"/>
<path d="M319.227 472.963C321.275 471.303 322.492 468.702 322.494 466.072C322.494 465.843 322.484 465.614 322.466 465.384L322.458 465.19C322.452 464.288 322.996 463.451 323.602 462.564C324.196 461.68 324.855 460.745 324.86 459.58L324.842 459.24C324.821 459.057 324.655 458.926 324.473 458.947C324.29 458.968 324.158 459.133 324.179 459.316L324.194 459.58C324.2 460.47 323.657 461.302 323.05 462.19C322.455 463.075 321.796 464.015 321.791 465.19L321.802 465.44C321.819 465.65 321.827 465.862 321.827 466.072C321.83 468.495 320.692 470.921 318.807 472.444C318.664 472.56 318.642 472.771 318.758 472.914C318.874 473.056 319.083 473.079 319.227 472.963" fill="#131112"/>
<path d="M326.511 461.065C326.964 460.054 327.196 458.949 327.196 457.843C327.196 457.306 327.141 456.769 327.031 456.242C326.992 456.062 326.816 455.948 326.635 455.985C326.455 456.024 326.34 456.2 326.377 456.379C326.479 456.86 326.529 457.352 326.529 457.843C326.529 458.855 326.316 459.87 325.903 460.792C325.827 460.96 325.903 461.157 326.071 461.233C326.237 461.307 326.435 461.233 326.511 461.065" fill="#131112"/>
<path d="M269.157 456.675C271.11 455.143 272.266 452.695 272.269 450.225C272.269 449.897 272.247 449.569 272.206 449.242C272.182 449.059 272.015 448.931 271.833 448.954C271.65 448.978 271.521 449.145 271.545 449.327C271.582 449.625 271.602 449.925 271.602 450.225C271.603 452.486 270.527 454.757 268.745 456.15C268.601 456.263 268.574 456.473 268.689 456.618C268.802 456.763 269.011 456.789 269.157 456.675" fill="#131112"/>
<path d="M273.381 451.174C274.035 450.104 274.377 448.854 274.377 447.602C274.377 447.154 274.333 446.706 274.243 446.265C274.207 446.085 274.031 445.969 273.85 446.005C273.67 446.042 273.554 446.218 273.59 446.398C273.67 446.794 273.71 447.198 273.71 447.602C273.71 448.733 273.399 449.866 272.813 450.826C272.717 450.984 272.766 451.189 272.922 451.285C273.079 451.381 273.285 451.332 273.381 451.174" fill="#131112"/>
<defs>
<radialGradient id="paint0_radial_101_357" cx="0" cy="0" r="1" gradientUnits="userSpaceOnUse" gradientTransform="translate(107.174 81.0784) rotate(-24.2662) scale(10.0553)">
<stop stop-color="#9A4A45"/>
<stop offset="1" stop-color="#A66345"/>
</radialGradient>
<radialGradient id="paint1_radial_101_357" cx="0" cy="0" r="1" gradientUnits="userSpaceOnUse" gradientTransform="translate(65.1196 87.1904) rotate(-24.2662) scale(10.0553)">
<stop stop-color="#9A4A45"/>
<stop offset="1" stop-color="#A66345"/>
</radialGradient>
</defs>
</svg>
